<?xml version="1.0" encoding="utf-8"?>
<!-- Generator: Adobe Illustrator 24.0.1, SVG Export Plug-In . SVG Version: 6.00 Build 0)  -->
<svg version="1.1" id="Layer_1" xmlns="http://www.w3.org/2000/svg" xmlns:xlink="http://www.w3.org/1999/xlink" x="0px" y="0px"
	 viewBox="0 0 16 16.12" style="enable-background:new 0 0 16 16.12;" xml:space="preserve">
<style type="text/css">
	.st0{opacity:0.5;fill:#2D6F7F;}
    
</style>
<path class="st0" d="M13.84,12.74c-0.62-0.28-1.27-0.51-1.93-0.69c0.38-1.2,0.58-2.45,0.59-3.71v0.01h2.95
	C15.39,9.94,14.83,11.48,13.84,12.74z M9.98,15.31c0.79-0.75,1.39-1.69,1.75-2.72c0.6,0.15,1.18,0.34,1.74,0.58
	C12.53,14.19,11.32,14.94,9.98,15.31z M8.27,15.56v-3.41c0.99,0.01,1.97,0.12,2.94,0.31C10.53,14.22,9.48,15.4,8.27,15.56z
	 M8.27,8.34h3.69c-0.01,1.23-0.21,2.45-0.57,3.62c-1.03-0.22-2.07-0.34-3.12-0.36V8.34z M8.27,4.52c1.05-0.01,2.09-0.13,3.12-0.34
	c0.36,1.17,0.55,2.39,0.57,3.62H8.27V4.52z M8.27,0.57c1.21,0.16,2.27,1.34,2.94,3.09c-0.97,0.2-1.95,0.3-2.94,0.32V0.57z
	 M13.47,2.97c-0.57,0.24-1.15,0.43-1.74,0.58c-0.36-1.04-0.96-1.97-1.75-2.73C11.32,1.19,12.53,1.94,13.47,2.97z M13.84,3.41
	c0.99,1.25,1.55,2.79,1.61,4.39H12.5c-0.02-1.27-0.22-2.52-0.59-3.73C12.57,3.91,13.21,3.68,13.84,3.41z M7.73,3.98
	C6.74,3.96,5.76,3.86,4.79,3.66C5.47,1.9,6.52,0.73,7.73,0.57V3.98z M7.73,7.78H4.04c0.01-1.23,0.21-2.45,0.57-3.62
	C5.64,4.38,6.68,4.5,7.73,4.52V7.78z M7.73,11.58c-1.05,0.01-2.09,0.13-3.12,0.34c-0.36-1.16-0.55-2.37-0.57-3.59V8.32h3.69V11.58z
	 M7.73,15.56c-1.21-0.16-2.27-1.34-2.94-3.09c0.97-0.2,1.95-0.3,2.94-0.32V15.56z M2.53,13.16v-0.02c0.57-0.24,1.15-0.43,1.74-0.58
	c0.35,1.05,0.96,1.99,1.75,2.75C4.68,14.93,3.47,14.19,2.53,13.16z M2.16,12.71c-0.99-1.25-1.55-2.79-1.61-4.39L3.5,8.32
	c0.02,1.26,0.22,2.52,0.59,3.72C3.43,12.21,2.79,12.43,2.16,12.71z M2.16,3.39C2.78,3.67,3.43,3.9,4.1,4.08
	C3.72,5.28,3.52,6.53,3.5,7.79V7.78H0.55C0.61,6.18,1.17,4.64,2.16,3.39z M6.02,0.82C5.23,1.57,4.63,2.5,4.27,3.54
	C3.68,3.39,3.09,3.2,2.53,2.96C3.47,1.93,4.68,1.19,6.02,0.82z M8,0C3.58,0,0,3.61,0,8.06c0,4.45,3.58,8.06,8,8.06
	c4.42,0,8-3.61,8-8.06C15.99,3.61,12.42,0.01,8,0z"/>
</svg>
